HIERARCHY
ROOT Hips
{
  OFFSET 1.44925e-005 102.336 -0.101585
  CHANNELS 6 Xposition Yposition Zposition Zrotation Xrotation Yrotation
  JOINT LeftUpLeg
  {
    OFFSET 8.9458 -8.66707 0.101652
    CHANNELS 3 Zrotation Xrotation Yrotation
    JOINT LeftLeg
    {
      OFFSET 0 -44.4227 1.3727
      CHANNELS 3 Zrotation Xrotation Yrotation
      JOINT LeftFoot
      {
        OFFSET -0.253549 -42.0924 -1.46059
        CHANNELS 3 Zrotation Xrotation Yrotation
        JOINT LeftToes
        {
          OFFSET -0.04 -4.41509 8.4991
          CHANNELS 3 Zrotation Xrotation Yrotation
          End Site
          {
            OFFSET 0.08 -0.047448 9.77979
          }
        }
      }
    }
  }
  JOINT Spine
  {
    OFFSET 0 11.8905 0
    CHANNELS 3 Zrotation Xrotation Yrotation
    JOINT Spine1
    {
      OFFSET 0 25.6574 0.127663
      CHANNELS 3 Zrotation Xrotation Yrotation
      JOINT RightShoulder
      {
        OFFSET -8.99 -0.362252 -0.22
        CHANNELS 3 Zrotation Xrotation Yrotation
        JOINT RightArm
        {
          OFFSET -10.2827 -0.00338 0.322123
          CHANNELS 3 Zrotation Xrotation Yrotation
          JOINT RightForeArm
          {
            OFFSET -26.364 0.099144 -1.42434
            CHANNELS 3 Zrotation Xrotation Yrotation
            JOINT RightHand
            {
              OFFSET -22.0324 0.085362 1.02216
              CHANNELS 3 Zrotation Xrotation Yrotation
              End Site
              {
                OFFSET -13.3284 -0.6 1.50291
              }
            }
          }
        }
      }
      JOINT LeftShoulder1
      {
        OFFSET 8.99 -0.362252 -0.22
        CHANNELS 3 Zrotation Xrotation Yrotation
        JOINT LeftArm
        {
          OFFSET 10.2827 -0.00337999 0.322123
          CHANNELS 3 Zrotation Xrotation Yrotation
          JOINT LeftForeArm
          {
            OFFSET 26.2597 0.099144 -1.42434
            CHANNELS 3 Zrotation Xrotation Yrotation
            JOINT LeftHand
            {
              OFFSET 22.0902 0.085362 1.02216
              CHANNELS 3 Zrotation Xrotation Yrotation
              End Site
              {
                OFFSET 13.419 -0.6 1.50291
              }
            }
          }
        }
      }
      JOINT Head
      {
        OFFSET 0 8.73416 0.011341
        CHANNELS 3 Zrotation Xrotation Yrotation
        End Site
        {
          OFFSET -0.29 12.7742 2.51395
        }
      }
    }
  }
  JOINT RightUpLeg
  {
    OFFSET -8.9458 -8.66707 0.101652
    CHANNELS 3 Zrotation Xrotation Yrotation
    JOINT RightLeg
    {
      OFFSET 0 -44.4227 1.3727
      CHANNELS 3 Zrotation Xrotation Yrotation
      JOINT RightFoot
      {
        OFFSET 0.253549 -42.0924 -1.46059
        CHANNELS 3 Zrotation Xrotation Yrotation
        JOINT RightToes
        {
          OFFSET 0.04 -4.41509 8.4991
          CHANNELS 3 Zrotation Xrotation Yrotation
          End Site
          {
            OFFSET -0.08 -0.137448 9.77979
          }
        }
      }
    }
  }
}
MOTION
Frames:	19
Frame Time:	0.0333333
40.401 102.882 7.21395 -5.19181 -0.407922 -90.126 -4.25009 9.67127 5.75448 0.986414 25.6432 18.6893 -6.43882 -8.60486 -0.0272108 -1.35388e-009 8.75222e-006 -1.4718e-008 -2.4029 15.1493 -4.01755 4.09864 -2.32732 -5.08352 36.0821 1.85233 0.371445 35.2822 9.56951 -32.6503 4.64204 18.5924 30.4082 -16.2176 8.98282 1.44462 -38.2373 3.00087 -3.2467 -35.8201 -14.0508 -28.4524 18.0301 25.7149 -83.6804 5.82328 9.61819 -0.917488 1.4863 -16.7591 3.06439 -1.78194 -31.2903 -6.38872 -1.89489 58.7724 -18.4334 11.2147 -27.7714 1.75129 0.0462048 0.000530889 0.662642 
35.8724 104.924 7.04209 -4.33684 -0.258796 -90.4071 -3.43528 11.0057 8.55279 1.0261 24.7303 20.6889 -3.59805 -2.91712 0.166275 -1.35388e-009 8.75222e-006 -1.4718e-008 -1.06026 12.9407 -4.79298 4.06273 -1.88085 -5.63223 35.5106 1.87765 0.486655 32.3495 4.8431 -39.6747 4.38893 19.692 35.4263 -16.2491 8.97668 1.47555 -37.4937 2.91817 -3.17708 -35.5957 -12.6865 -30.4654 17.5493 24.8719 -86.121 5.82328 9.61819 -0.917488 0.947771 -14.7649 3.838 -1.48629 -27.3849 -7.66562 -1.30214 44.9992 -17.6034 11.711 -27.4312 1.80778 0.0462048 0.000530889 0.662642 
31.495 105.651 6.7238 -4.25362 -0.383869 -90.5218 -2.67879 11.2113 10.7669 1.30761 29.0436 24.2237 -3.34848 -2.90088 0.138366 -1.35388e-009 8.75222e-006 -1.4718e-008 -0.5543 12.0133 -5.24189 4.35972 -1.73503 -6.03146 35.4482 1.89971 0.545925 29.4449 1.9782 -45.6487 4.37745 20.2554 40.1554 -16.2251 8.95574 1.64445 -36.6691 2.81961 -3.08029 -36.2797 -11.2456 -32.6159 16.7296 24.2162 -87.9508 5.82328 9.61819 -0.917488 0.525362 -13.3221 4.34903 -1.27734 -23.4832 -9.09512 -1.10167 34.0082 -16.833 11.3882 -26.7298 1.67789 0.0462048 0.000530889 0.662642 
27.2976 105.119 6.2382 -4.87131 -0.516122 -90.7866 -1.72656 11.093 11.6745 1.42724 36.2947 26.4465 -5.0081 -5.50926 0.110625 -1.35388e-009 8.75222e-006 -1.4718e-008 -0.68658 11.9987 -5.43342 4.89909 -1.09646 -6.26635 35.7203 1.90897 0.541124 27.7282 0.601882 -48.7825 4.71326 20.2304 42.8615 -16.1374 8.95166 1.71662 -35.9187 2.72782 -2.98356 -37.529 -10.0652 -34.7428 16.2056 23.77 -89.3162 5.82328 9.61819 -0.917488 0.734818 -13.0728 4.84548 -0.849494 -20.1764 -9.73107 -0.919173 27.6694 -15.8314 11.0788 -26.932 1.64414 0.0462048 0.000530889 0.662642 
23.2645 103.374 5.66962 -5.55231 -0.688047 -90.9687 -0.720058 10.4568 11.4311 1.6367 44.4749 26.4572 -5.39145 -8.79328 -0.0104305 -1.35388e-009 8.75222e-006 -1.4718e-008 -1.1504 11.9855 -5.68495 5.61687 0.20384 -6.58097 35.9814 1.90595 0.50821 27.1628 -0.521332 -48.6931 4.79003 20.2019 43.1487 -15.839 8.977 1.6641 -35.8378 2.71971 -2.97693 -38.267 -9.43475 -36.0533 15.6213 23.5907 -89.8001 5.82328 9.61819 -0.917488 1.16691 -13.4227 5.3343 -0.3901 -17.8063 -8.76314 -0.670473 25.673 -15.9916 11.4765 -27.9129 1.81319 0.0462048 0.000530889 0.662642 
19.4429 100.595 5.12825 -5.72852 -0.515251 -90.9981 0.718367 8.69031 10.3439 1.99518 52.9044 26.6573 -4.15778 -12.3842 -0.113762 -1.35388e-009 8.75222e-006 -1.4718e-008 -0.881878 12.1414 -6.16545 6.15072 0.694871 -6.934 36.1374 1.89929 0.477241 26.7876 -2.26603 -47.2703 4.58971 20.3576 42.9572 -15.3715 9.02565 1.50675 -36.6407 2.81724 -3.07922 -38.1675 -9.14666 -35.9211 14.8372 23.7058 -89.1678 5.82328 9.61819 -0.917488 1.11568 -13.2734 5.47829 0.363242 -17.2869 -7.48176 -0.79451 27.6171 -17.5034 10.9797 -27.6012 1.6942 0.0462048 0.000530889 0.662642 
15.968 97.1918 4.72666 -5.64826 0.814216 -91.5796 3.44135 6.1381 9.10999 2.50834 61.244 27.3017 -3.74488 -15.5281 -0.186531 -1.35388e-009 8.75222e-006 -1.4718e-008 1.80134 13.5416 -6.5117 6.09235 -0.40584 -6.72512 36.1444 1.88539 0.443646 26.3516 -4.71263 -45.3987 4.7519 20.3106 43.8369 -15.4612 9.04392 1.31922 -38.2062 2.99581 -3.23984 -37.7388 -8.94738 -34.6263 15.3727 24.0192 -88.1536 5.82328 9.61819 -0.917488 0.419027 -13.1861 5.13696 2.45289 -19.4407 -6.68255 -1.20451 34.2777 -18.7383 8.05726 -25.4233 1.014 0.0462048 0.000530889 0.662642 
12.8299 93.5145 4.47472 -5.89369 4.15134 -93.1699 7.15134 3.50259 7.63285 3.30329 69.3089 26.0117 -4.74046 -17.9282 -0.341884 -1.35388e-009 8.75222e-006 -1.4718e-008 6.33323 16.4548 -6.37232 6.00924 -1.68619 -5.77751 36.0873 1.84901 0.362956 26.6208 -7.2527 -40.4706 5.26984 19.9168 44.2654 -16.5023 8.99362 1.23584 -40.5298 3.24773 -3.42401 -37.3321 -9.3142 -32.5844 18.3702 24.6809 -87.1065 5.82328 9.61819 -0.917488 -0.532655 -15.1147 4.92926 6.22553 -23.0203 -5.50837 -1.34029 44.5296 -18.8289 4.10324 -24.2517 0.321481 0.0462048 0.000530889 0.662642 
9.91914 89.926 4.27762 -6.33918 7.53811 -95.4566 10.1421 0.165729 5.0311 5.13232 77.1892 22.1569 -5.51562 -20.2417 -0.512678 -1.35388e-009 8.75222e-006 -1.4718e-008 9.89287 19.6803 -6.0636 7.00259 -1.4547 -4.85612 36.6169 1.80151 0.203091 27.891 -9.21221 -29.6024 5.3377 19.5722 41.8478 -17.6884 8.93215 1.18407 -43.5168 3.56192 -3.60577 -36.8179 -10.995 -29.4162 21.3869 26.2507 -84.2221 5.82328 9.61819 -0.917488 -1.14549 -19.4761 5.69923 10.3468 -25.7282 -4.42261 -1.67007 54.6933 -17.8911 2.11636 -26.9446 0.0713695 0.0462048 0.000530889 0.662642 
7.16378 87.0793 4.12459 -6.53345 9.78256 -96.9273 11.0165 -5.16498 1.57753 12.3514 84.6434 14.2152 -5.26646 -22.344 -0.573997 -1.35388e-009 8.75222e-006 -1.4718e-008 11.5906 22.0515 -5.98747 8.4578 -0.225074 -4.44972 38.2523 1.78779 0.0303724 29.7523 -10.1516 -14.2982 5.01647 19.2676 37.4979 -18.2201 8.9343 0.963302 -46.541 3.85627 -3.71223 -35.9077 -13.8039 -24.6644 19.7834 28.6132 -76.6342 5.82328 9.61819 -0.917488 -0.986676 -24.1082 7.32547 13.1344 -26.6983 -3.44819 -2.05416 61.8065 -17.6027 3.1437 -31.9716 0.371311 0.0462048 0.000530889 0.662642 
4.31123 85.3698 4.08701 -6.37943 10.5596 -98.191 10.0263 -12.2462 -0.676927 134.672 88.3734 -106.934 -4.7029 -23.553 -0.545538 -1.35388e-009 8.75222e-006 -1.4718e-008 13.1897 23.4295 -5.93121 7.80722 0.425028 -3.77394 39.9956 1.80432 -0.0743584 32.6661 -10.4473 0.904169 5.05286 18.8508 35.0882 -18.4702 8.95623 0.727078 -48.8356 4.01693 -3.66399 -34.0956 -16.2696 -18.7391 12.8037 29.5468 -64.2418 5.82328 9.61819 -0.917488 -0.471168 -26.9896 8.42603 14.3295 -26.3207 -2.24478 -2.37228 65.7326 -17.6673 5.35876 -35.9606 1.03908 0.0462048 0.000530889 0.662642 
1.15011 84.8249 4.16 -6.03024 10.6919 -100.174 8.96307 -19.7781 -0.347198 167.877 84.447 -139.46 -4.85757 -24.0941 -0.58884 -1.35388e-009 8.75222e-006 -1.4718e-008 16.0354 24.011 -5.4964 4.01721 0.428163 -2.05453 40.2663 1.81169 -0.0792747 37.1384 -10.1803 13.6237 5.55378 18.576 36.755 -19.0098 8.93218 0.694763 -50.105 4.02982 -3.50354 -31.162 -16.5053 -12.3918 5.90528 28.2032 -51.601 5.82328 9.61819 -0.917488 -0.454268 -28.3545 7.84863 14.6655 -24.7728 -0.796727 -2.48805 67.3519 -16.9253 6.63479 -38.0884 1.50365 0.0462048 0.000530889 0.662642 
-2.37452 85.4674 4.22083 -5.64863 10.6908 -102.192 8.85972 -26.7134 1.48647 170.522 82.9673 -142.994 -6.24596 -24.4545 -0.81405 -1.35388e-009 8.75222e-006 -1.4718e-008 19.0367 23.9403 -4.64293 -0.527193 0.461511 0.0909962 38.9886 1.80393 0.00581672 41.409 -8.85875 24.0626 5.84026 19.0755 41.648 -19.2938 8.93471 0.583157 -50.6325 4.00086 -3.37982 -27.7639 -13.7358 -5.76393 2.34 26.6776 -42.0179 5.82328 9.61819 -0.917488 -1.17308 -29.1817 5.90453 14.179 -21.6746 -0.115636 -2.26861 66.2635 -15.3756 6.94683 -39.4768 1.68247 0.0462048 0.000530889 0.662642 
-6.34061 87.4149 4.11495 -5.35227 9.97919 -102.681 8.44552 -32.3291 2.64661 167.401 84.8361 -140.783 -8.06926 -24.67 -1.10675 -1.35388e-009 8.75222e-006 -1.4718e-008 19.9049 23.258 -3.51452 -3.09066 0.21669 1.57836 37.3545 1.77459 0.07567 43.6789 -7.34688 31.9382 4.97516 20.6418 48.6617 -18.241 9.06732 0.0622992 -50.7376 3.99884 -3.36206 -25.1863 -8.91832 1.48759 0.395173 25.277 -35.1566 5.82328 9.61819 -0.917488 -2.09787 -29.3627 3.49985 12.2471 -16.7326 -0.898183 -1.77722 61.3511 -14.0997 7.04499 -40.0464 1.75018 0.0462048 0.000530889 0.662642 
-10.7779 90.5757 3.85033 -5.17756 7.72945 -101.651 6.1866 -35.8999 2.58316 59.4905 88.7014 -32.6514 -9.14942 -24.699 -1.27615 -1.35388e-009 8.75222e-006 -1.4718e-008 17.8806 22.1562 -2.07589 -4.06457 -0.900659 2.38241 36.1287 1.73454 0.0882435 44.7573 -6.90404 36.2673 3.0737 22.3655 56.8363 -16.0238 9.24647 -0.483818 -50.3487 3.95966 -3.348 -24.3108 -3.56983 9.10164 -1.53279 22.9338 -29.6993 5.82328 9.61819 -0.917488 -2.58573 -28.365 0.882545 8.82302 -10.2888 -2.28037 -1.34233 52.8398 -13.3872 7.37109 -38.3701 1.73577 0.0462048 0.000530889 0.662642 
-15.5404 94.4347 3.61814 -4.80926 4.49668 -100.532 2.97654 -37.2781 2.62748 6.91746 80.4312 20.4878 -9.46784 -24.2737 -1.29062 -1.35388e-009 8.75222e-006 -1.4718e-008 14.7537 20.6778 -0.339042 -5.63508 -2.24626 3.3424 35.1778 1.69555 0.0786392 46.0443 -7.39795 37.2899 1.54411 23.2257 64.6336 -14.3694 9.33242 -0.613647 -49.3902 3.81904 -3.23407 -24.7154 1.3188 16.2707 -2.97077 20.4095 -25.4664 5.82328 9.61819 -0.917488 -2.60961 -26.4977 -2.11218 4.7019 -3.59644 -3.03645 -1.07028 42.8641 -12.4371 8.62187 -33.3052 1.68594 0.0462048 0.000530889 0.662642 
-20.4461 98.3762 3.56756 -3.9032 1.909 -100.145 1.05045 -37.132 3.76836 3.39054 70.0919 24.0207 -9.76802 -23.4719 -1.26783 -1.35388e-009 8.75222e-006 -1.4718e-008 13.0335 18.4748 1.37142 -8.34995 -2.76768 4.75027 34.3385 1.66334 0.0747572 47.4603 -7.78983 36.7384 0.854451 23.4402 71.0839 -14.1371 9.3436 -0.628308 -48.1543 3.64886 -3.09936 -25.2018 4.44758 22.9314 -3.10743 19.903 -23.4911 5.82328 9.61819 -0.917488 -2.64987 -24.4503 -5.04971 1.09413 1.77749 -3.73254 -0.879033 33.9194 -10.4147 10.716 -24.398 1.32652 0.0462048 0.000530889 0.662642 
-25.3687 101.934 3.67842 -2.5675 1.08661 -100.124 1.2059 -35.9294 5.45338 2.24472 59.4366 24.5948 -10.2167 -22.9407 -1.28539 -1.35388e-009 8.75222e-006 -1.4718e-008 13.3249 15.6694 2.68835 -10.8029 -2.45792 6.09463 33.7691 1.64951 0.0918095 48.0668 -7.31512 36.2191 0.123171 23.5445 76.2348 -14.1517 9.37759 -0.934914 -46.9794 3.53518 -3.05165 -24.7356 4.21037 29.7249 -2.16797 21.7164 -24.2879 5.82328 9.61819 -0.917488 -2.95901 -22.3429 -7.06124 -0.91387 4.98046 -5.95607 -0.628241 27.7179 -7.96299 11.924 -12.5584 0.33256 0.0462048 0.000530889 0.662642 
-30.2011 104.667 3.8479 -1.61279 1.70886 -99.838 2.25301 -33.335 6.43779 1.70065 48.9811 24.1907 -10.3562 -22.6066 -1.27476 -1.35388e-009 8.75222e-006 -1.4718e-008 14.1165 13.2514 3.52859 -11.7446 -1.86668 6.90361 33.4886 1.6495 0.117508 47.4912 -5.98304 36.2152 -0.777162 23.5913 80.3101 -13.3679 9.45754 -1.39702 -45.9055 3.45912 -3.05681 -23.0397 1.00961 36.8569 -1.17813 23.4798 -26.795 5.82328 9.61819 -0.917488 -3.21107 -20.1588 -7.89404 -1.33325 6.65091 -9.01683 -0.216699 25.2226 -7.4568 10.9718 -1.99953 -0.668752 0.0462048 0.000530889 0.662642 
